<?xml version="1.0" encoding="utf-8"?>
<!-- Generator: Adobe Illustrator 16.0.0, SVG Export Plug-In . SVG Version: 6.00 Build 0)  -->
<!DOCTYPE svg PUBLIC "-//W3C//DTD SVG 1.1//EN" "http://www.w3.org/Graphics/SVG/1.1/DTD/svg11.dtd">
<svg version="1.1" id="Layer_1" xmlns="http://www.w3.org/2000/svg" xmlns:xlink="http://www.w3.org/1999/xlink" x="0px" y="0px"
	 width="75px" height="75px" viewBox="0 0 75 75" enable-background="new 0 0 75 75" xml:space="preserve">
<g>
	<path fill="#FFFFFF" d="M47.435,19.86c0,13.995,0,27.985,0,27.985h3.836V75h7.921V48.421L59.193,1.65
		C59.192,1.65,47.435,5.866,47.435,19.86z"/>
	<path fill="#FFFFFF" d="M32.866,0.117v19.344H30.76V7.688c0-4.695-3.643-7.57-3.643-7.57v19.344h-2.108V7.688
		c0-4.695-3.642-7.57-3.642-7.57v19.344H19.26V7.688c0-4.695-3.641-7.57-3.641-7.57v23.986c0,3.528,2.818,6.391,6.324,6.479V75
		h7.923V30.583c0.054,0.002,0.105,0.008,0.16,0.008c3.582,0,6.485-2.903,6.485-6.486V7.688C36.51,2.992,32.866,0.117,32.866,0.117z"
		/>
</g>
</svg>
