<?xml version="1.0" encoding="utf-8"?>
<!-- Generator: Adobe Illustrator 16.0.0, SVG Export Plug-In . SVG Version: 6.00 Build 0)  -->
<!DOCTYPE svg PUBLIC "-//W3C//DTD SVG 1.1//EN" "http://www.w3.org/Graphics/SVG/1.1/DTD/svg11.dtd">
<svg version="1.1" id="Layer_1" xmlns="http://www.w3.org/2000/svg" xmlns:xlink="http://www.w3.org/1999/xlink" x="0px" y="0px"
	 width="75px" height="75px" viewBox="0 0 75 75" enable-background="new 0 0 75 75" xml:space="preserve">
<g>
	<g>
		<circle fill="#FFFFFF" cx="21.198" cy="12.903" r="5.611"/>
		<path fill="#FFFFFF" d="M28.408,28.827l-0.034,42.84c0,4.285-6.302,4.246-6.302-0.099l-0.005-24.922l-1.224-0.012l0.003,24.922
			c0,4.344-6.375,4.454-6.375,0.11l-0.004-43.019h-1.108v15.364c0,3.688-5.003,3.688-5.003,0.065V27.269
			c0-4.517,3.363-7.178,6.918-7.178h9.978c2.369,0,4.085,0.938,5.527,2.999l5.05,7.359h8.762c3.521,0,3.324,4.994,0.067,4.994
			H34.557c-0.789,0-1.752-0.294-2.306-1.119L28.408,28.827z"/>
	</g>
	<path fill="#FFFFFF" d="M0,0.229V47.84h73.984V0.229H0z M69.479,43.334h-64.2V5.039h64.2V43.334z"/>
	<polygon fill="#FFFFFF" points="44.913,33.85 43.475,32.116 63.848,16.66 63.848,16.66 	"/>
</g>
</svg>
