<?xml version="1.0" encoding="utf-8"?>
<!-- Generator: Adobe Illustrator 16.0.0, SVG Export Plug-In . SVG Version: 6.00 Build 0)  -->
<!DOCTYPE svg PUBLIC "-//W3C//DTD SVG 1.1//EN" "http://www.w3.org/Graphics/SVG/1.1/DTD/svg11.dtd">
<svg version="1.1" id="Layer_1" xmlns="http://www.w3.org/2000/svg" xmlns:xlink="http://www.w3.org/1999/xlink" x="0px" y="0px"
	 width="75px" height="75px" viewBox="0 0 75 75" enable-background="new 0 0 75 75" xml:space="preserve">
<g>
	<path fill="#FFFFFF" d="M47.877,19.773c0,14.017,0,28.029,0,28.029h3.842V75h7.934V48.38l0.002-46.845
		C59.653,1.535,47.877,5.758,47.877,19.773z"/>
	<path fill="#FFFFFF" d="M33.286,0v19.374h-2.11V7.582C31.176,2.879,27.527,0,27.527,0v19.374h-2.111V7.582
		C25.416,2.879,21.769,0,21.769,0v19.374h-2.11V7.582C19.658,2.879,16.012,0,16.012,0v24.023c0,3.534,2.822,6.4,6.334,6.488V75
		h7.936V30.513c0.054,0.002,0.105,0.008,0.16,0.008c3.588,0,6.496-2.907,6.496-6.496V7.583C36.936,2.879,33.286,0,33.286,0z"/>
</g>
</svg>
