<?xml version="1.0" encoding="utf-8"?>
<!-- Generator: Adobe Illustrator 16.0.0, SVG Export Plug-In . SVG Version: 6.00 Build 0)  -->
<!DOCTYPE svg PUBLIC "-//W3C//DTD SVG 1.1//EN" "http://www.w3.org/Graphics/SVG/1.1/DTD/svg11.dtd">
<svg version="1.1" id="Layer_1" xmlns="http://www.w3.org/2000/svg" xmlns:xlink="http://www.w3.org/1999/xlink" x="0px" y="0px"
	 width="75px" height="75px" viewBox="0 0 75 75" enable-background="new 0 0 75 75" xml:space="preserve">
<g>
	<ellipse fill="#FFFFFF" cx="37.476" cy="18.615" rx="15.067" ry="15.034"/>
	<path fill="#FFFFFF" d="M17.49,67.581l-4.325-30.293C6.801,37.94,0.049,40.087,0.049,40.087l2.99,20.93c0,0,2.13,3.913,5.292,5.57
		C11.493,68.246,17.49,67.581,17.49,67.581z"/>
	<path fill="#FFFFFF" d="M57.4,67.581l4.327-30.293c6.362,0.652,13.114,2.799,13.114,2.799l-2.989,20.93c0,0-2.132,3.913-5.293,5.57
		C63.398,68.246,57.4,67.581,57.4,67.581z"/>
	<path fill="#FFFFFF" d="M17.987,35.575c3.1,0,5.914-1.184,8.039-3.112c-4.007-3.285-6.563-8.267-6.563-13.847
		c0-2.334,0.459-4.557,1.273-6.602c-0.885-0.208-1.801-0.329-2.75-0.329c-6.613,0-11.972,5.347-11.972,11.944
		C6.017,30.228,11.374,35.575,17.987,35.575z"/>
	<path fill="#FFFFFF" d="M55.376,18.616c0,4.791-1.896,9.135-4.969,12.35c2.189,2.802,5.598,4.609,9.436,4.609
		c6.611,0,11.972-5.348,11.972-11.944c0-6.599-5.359-11.944-11.972-11.944c-1.94,0-3.768,0.472-5.39,1.289
		C55.045,14.749,55.376,16.644,55.376,18.616z"/>
	<path fill="#FFFFFF" d="M38.222,73.581c-15.677,0-17.489-4.505-17.489-4.505l-3.953-29.361c0,0,11.8-3.764,20.696-3.764
		c8.84,0,20.694,4.319,20.694,4.319l-3.977,28.805C54.193,69.076,53.897,73.581,38.222,73.581z"/>
</g>
</svg>
