<?xml version="1.0" encoding="utf-8"?>
<!-- Generator: Adobe Illustrator 16.0.0, SVG Export Plug-In . SVG Version: 6.00 Build 0)  -->
<!DOCTYPE svg PUBLIC "-//W3C//DTD SVG 1.1//EN" "http://www.w3.org/Graphics/SVG/1.1/DTD/svg11.dtd">
<svg version="1.1" id="Layer_1" xmlns="http://www.w3.org/2000/svg" xmlns:xlink="http://www.w3.org/1999/xlink" x="0px" y="0px"
	 width="75px" height="75px" viewBox="0 0 75 75" enable-background="new 0 0 75 75" xml:space="preserve">
<g>
	<path fill="#FFFFFF" d="M50.138,43.497c-0.837-0.809-1.563-1.195-2.347-1.535c-0.789-0.312-1.581-0.557-2.743-0.575H37.05v-2.149
		h11.859c0,0-0.872-6.267-6.405-6.267h-5.455v-3.719c0,0,0.934-14.4-13.098-14.4v26.537h-0.016l0.024,0.05v4.732
		c0,0.82,0.313,1.562,0.814,2.136c0.599,0.689,1.476,1.138,2.466,1.138h1.923c0.008,0,0.017-0.004,0.024-0.004
		c5.508,0,16.508,0,16.508,0s1.175,1.202,2.848,2.91c0.04,0.042,0.083,0.084,0.123,0.126c2.768,2.826,6.822,6.956,9.255,9.39
		c0.964,0.961,2.036,1.421,3.109,1.567c3.348,0.458,6.701-2.142,6.701-2.142l-3.173-3.174L50.138,43.497z"/>
	<path fill="#FFFFFF" d="M30.241,68.455c-10.203-0.02-18.457-8.274-18.478-18.477c0.014-7.201,4.14-13.417,10.146-16.467v-6.45
		C12.55,30.466,5.866,39.438,5.865,49.979C5.867,63.441,16.776,74.351,30.24,74.351c10.124,0,18.803-6.167,22.489-14.951
		l-4.661-4.657C45.962,62.628,38.795,68.439,30.241,68.455z"/>
	<circle fill="#FFFFFF" cx="29.373" cy="6.497" r="6.502"/>
</g>
</svg>
