<?xml version="1.0" encoding="utf-8"?>
<!-- Generator: Adobe Illustrator 16.0.0, SVG Export Plug-In . SVG Version: 6.00 Build 0)  -->
<!DOCTYPE svg PUBLIC "-//W3C//DTD SVG 1.1//EN" "http://www.w3.org/Graphics/SVG/1.1/DTD/svg11.dtd">
<svg version="1.1" id="Layer_1" xmlns="http://www.w3.org/2000/svg" xmlns:xlink="http://www.w3.org/1999/xlink" x="0px" y="0px"
	 width="75px" height="75px" viewBox="0 0 75 75" enable-background="new 0 0 75 75" xml:space="preserve">
<g>
	<path fill="#FFFFFF" d="M17.206,7.321C12.651,4.922,5.15,6.601,2.57,10.68c-1.153,1.822-1.067,3.14-1.067,3.886l0.409,38.706
		c0.028,0.821,1.063,1.931,1.948,2.474c1.845,1.13,33.229,19.169,33.229,19.169l0.064-44.788L4.713,11.777
		C6.266,9.958,6.898,9.375,9.61,8.412c3.356-1.191,2.147-0.878,6.48,0.803l30.794,17.304v41.289l1.957-2.008l0.057-40.868
		L17.206,7.321z"/>
	<polygon fill="#FFFFFF" points="57.334,18.014 57.334,3.293 54.391,6.237 54.391,20.958 69.111,20.958 72.055,18.014 	"/>
	<path fill="#FFFFFF" d="M74.41,0.349H59.1l-0.785,0.59v15.31l0.785,0.785H74.41L75,16.248V0.938L74.41,0.349z M73.035,14.089H61.26
		V6.237h11.775V14.089z M73.035,5.256H61.26V2.312h11.775V5.256z"/>
</g>
</svg>
