<?xml version="1.0" encoding="utf-8"?>
<!-- Generator: Adobe Illustrator 16.0.0, SVG Export Plug-In . SVG Version: 6.00 Build 0)  -->
<!DOCTYPE svg PUBLIC "-//W3C//DTD SVG 1.1//EN" "http://www.w3.org/Graphics/SVG/1.1/DTD/svg11.dtd">
<svg version="1.1" id="Layer_1" xmlns="http://www.w3.org/2000/svg" xmlns:xlink="http://www.w3.org/1999/xlink" x="0px" y="0px"
	 width="75px" height="75px" viewBox="0 0 75 75" enable-background="new 0 0 75 75" xml:space="preserve">
<g id="Layer_4">
	<path fill-opacity="0" stroke="#FFFFFF" stroke-width="2" d="M26.192,25.92v37.543"/>
	<path fill-opacity="0" stroke="#FFFFFF" stroke-width="2" d="M38.283,25.92v37.543"/>
	<path fill-opacity="0" stroke="#FFFFFF" stroke-width="2" d="M50.254,25.92v37.543"/>
	<path fill-opacity="0" stroke="#FFFFFF" stroke-width="2" d="M13.71,38.797h48.813"/>
	<path fill-opacity="0" stroke="#FFFFFF" stroke-width="2" d="M13.687,50.443H62.5"/>
	<path fill-opacity="0" stroke="#FFFFFF" stroke-width="2" d="M14.845,16.788h46.551c1.433,0,2.595,1.154,2.595,2.577v42.616
		c0,1.424-1.162,2.577-2.595,2.577H14.845c-1.433,0-2.595-1.153-2.595-2.577V19.365C12.25,17.942,13.412,16.788,14.845,16.788z"/>
	<g>
		<path fill="#FFFFFF" d="M13.294,17.72h49.58v9.552h-49.58V17.72z"/>
		<path fill-opacity="0" stroke="#FFFFFF" stroke-width="2" d="M13.294,17.72h49.58v9.552h-49.58V17.72z"/>
	</g>
	<g>
		<path fill="none" stroke="#FFFFFF" stroke-width="2" stroke-miterlimit="10" d="M25.297,9.296h2.282
			c1.35,0,2.444,1.149,2.444,2.567v9.285c0,1.417-1.094,2.567-2.444,2.567h-2.282c-1.35,0-2.444-1.15-2.444-2.567v-9.285
			C22.854,10.445,23.948,9.296,25.297,9.296z"/>
		<path fill="none" stroke="#FFFFFF" stroke-width="2" d="M25.297,9.296h2.282c1.35,0,2.444,1.149,2.444,2.567v9.285
			c0,1.417-1.094,2.567-2.444,2.567h-2.282c-1.35,0-2.444-1.15-2.444-2.567v-9.285C22.854,10.445,23.948,9.296,25.297,9.296z"/>
	</g>
	<path fill-opacity="0" stroke="#FFFFFF" stroke-width="2" d="M13.294,25.82h49.58v37.543h-49.58V25.82z"/>
	<g>
		<path fill="none" stroke="#FFFFFF" stroke-width="2" stroke-miterlimit="10" d="M49.624,9.296h2.281
			c1.351,0,2.444,1.149,2.444,2.567v9.285c0,1.417-1.094,2.567-2.444,2.567h-2.281c-1.35,0-2.444-1.15-2.444-2.567v-9.285
			C47.18,10.445,48.274,9.296,49.624,9.296z"/>
		<path fill="none" stroke="#FFFFFF" stroke-width="2" d="M49.624,9.296h2.281c1.351,0,2.444,1.149,2.444,2.567v9.285
			c0,1.417-1.094,2.567-2.444,2.567h-2.281c-1.35,0-2.444-1.15-2.444-2.567v-9.285C47.18,10.445,48.274,9.296,49.624,9.296z"/>
	</g>
</g>
</svg>
