<?xml version="1.0" encoding="utf-8"?>
<!-- Generator: Adobe Illustrator 16.0.0, SVG Export Plug-In . SVG Version: 6.00 Build 0)  -->
<!DOCTYPE svg PUBLIC "-//W3C//DTD SVG 1.1//EN" "http://www.w3.org/Graphics/SVG/1.1/DTD/svg11.dtd">
<svg version="1.1" id="Layer_1" xmlns="http://www.w3.org/2000/svg" xmlns:xlink="http://www.w3.org/1999/xlink" x="0px" y="0px"
	 width="49.746px" height="57px" viewBox="0 0 49.746 57" enable-background="new 0 0 49.746 57" xml:space="preserve">
<g>
	<g>
		<path fill="#FFFFFF" d="M32.275,34.504c-0.61-0.591-1.141-0.871-1.711-1.119c-0.576-0.227-1.154-0.407-2-0.419h-5.831v-1.569
			h8.647c0,0-0.636-4.569-4.67-4.569h-3.977v-2.71c0,0,0.682-10.5-9.548-10.5v19.348h-0.012l0.018,0.035v3.45
			c0,0.599,0.229,1.139,0.593,1.557c0.438,0.504,1.077,0.83,1.8,0.83h1.401c0.007,0,0.012-0.003,0.02-0.003
			c4.015,0,12.036,0,12.036,0s0.855,0.877,2.074,2.121c0.03,0.031,0.06,0.062,0.09,0.092c2.019,2.062,4.975,5.073,6.749,6.847
			c0.701,0.701,1.482,1.035,2.264,1.143c2.442,0.332,4.886-1.562,4.886-1.562l-2.313-2.313L32.275,34.504z"/>
		<path fill="#FFFFFF" d="M17.772,52.7c-7.44-0.014-13.455-6.035-13.47-13.47c0.01-5.252,3.015-9.781,7.395-12.004v-4.702
			C4.873,25.008,0.001,31.546,0,39.23C0.001,49.046,7.956,57,17.772,57c7.382,0,13.709-4.497,16.394-10.9l-3.396-3.397
			C29.231,48.448,24.008,52.688,17.772,52.7z"/>
		<circle fill="#FFFFFF" cx="17.135" cy="7.53" r="4.741"/>
	</g>
	<g enable-background="new    ">
		<path fill="#FFFFFF" d="M36.158,17.739V0h5.748c2.178,0,3.599,0.09,4.26,0.266c1.017,0.266,1.867,0.847,2.553,1.736
			c0.685,0.893,1.028,2.045,1.028,3.454c0,1.089-0.197,2.006-0.594,2.747c-0.394,0.744-0.896,1.325-1.506,1.748
			c-0.609,0.424-1.228,0.706-1.857,0.841c-0.854,0.169-2.093,0.254-3.715,0.254h-2.335v6.691H36.158z M39.739,3.001v5.033h1.96
			c1.411,0,2.355-0.09,2.832-0.278c0.477-0.185,0.849-0.475,1.12-0.871c0.27-0.393,0.404-0.853,0.404-1.379
			c0-0.645-0.188-1.177-0.568-1.597c-0.38-0.417-0.859-0.68-1.44-0.787c-0.429-0.078-1.287-0.12-2.577-0.12H39.739z"/>
	</g>
</g>
</svg>
