<?xml version="1.0" encoding="utf-8"?>
<!-- Generator: Adobe Illustrator 16.0.0, SVG Export Plug-In . SVG Version: 6.00 Build 0)  -->
<!DOCTYPE svg PUBLIC "-//W3C//DTD SVG 1.1//EN" "http://www.w3.org/Graphics/SVG/1.1/DTD/svg11.dtd">
<svg version="1.1" id="Layer_1" xmlns="http://www.w3.org/2000/svg" xmlns:xlink="http://www.w3.org/1999/xlink" x="0px" y="0px"
	 width="75px" height="75px" viewBox="0 0 75 75" enable-background="new 0 0 75 75" xml:space="preserve">
<path fill="#FFFFFF" d="M69.283,56.634v-9.16c0-5.532-3.665-13.763-13.764-13.763h-7.977c-5.634,0-6.185,0-6.185,0V18.368
	c3.401-1.47,5.784-4.852,5.784-8.792c0-5.286-4.286-9.575-9.574-9.575c-5.288,0-9.575,4.289-9.575,9.575
	c0,3.941,2.383,7.322,5.785,8.792v15.344c0,0-0.299,0-6.183,0h-7.979c-10.097,0-13.763,8.229-13.763,13.763v9.16
	c-3.402,1.47-5.785,4.853-5.785,8.792c0,5.288,4.286,9.574,9.575,9.574c5.288,0,9.574-4.286,9.574-9.574
	c0-3.94-2.382-7.322-5.785-8.792v-9.16c0-1.033,0.298-6.184,6.184-6.184h7.979h6.183v15.344c-3.401,1.47-5.785,4.853-5.785,8.792
	c0,5.288,4.287,9.574,9.575,9.574c5.288,0,9.574-4.286,9.574-9.574c0-3.94-2.383-7.322-5.784-8.792V41.291h6.185h7.977
	c5.633,0,6.158,4.759,6.185,6.184v9.16c-3.401,1.47-5.784,4.853-5.784,8.792c0,5.288,4.286,9.574,9.574,9.574
	s9.573-4.286,9.573-9.574C75.067,61.486,72.685,58.104,69.283,56.634z M12.405,65.426c0,1.524-1.236,2.762-2.762,2.762
	c-1.526,0-2.762-1.237-2.762-2.762c0-1.525,1.236-2.763,2.762-2.763C11.168,62.663,12.405,63.9,12.405,65.426z M34.806,9.576
	c0-1.524,1.237-2.761,2.762-2.761c1.525,0,2.762,1.237,2.762,2.761c0,1.525-1.237,2.763-2.762,2.763
	C36.043,12.337,34.806,11.101,34.806,9.576z M40.33,65.426c0,1.524-1.237,2.762-2.762,2.762c-1.524,0-2.762-1.237-2.762-2.762
	c0-1.525,1.237-2.763,2.762-2.763C39.093,62.664,40.33,63.9,40.33,65.426z M65.494,68.188c-1.525,0-2.763-1.237-2.763-2.762
	c0-1.525,1.237-2.763,2.763-2.763c1.523,0,2.762,1.237,2.762,2.763C68.254,66.951,67.018,68.188,65.494,68.188z"/>
</svg>
