<?xml version="1.0" encoding="utf-8"?>
<!-- Generator: Adobe Illustrator 16.0.0, SVG Export Plug-In . SVG Version: 6.00 Build 0)  -->
<!DOCTYPE svg PUBLIC "-//W3C//DTD SVG 1.1//EN" "http://www.w3.org/Graphics/SVG/1.1/DTD/svg11.dtd">
<svg version="1.1" id="Layer_1" xmlns="http://www.w3.org/2000/svg" xmlns:xlink="http://www.w3.org/1999/xlink" x="0px" y="0px"
	 width="69.898px" height="74.998px" viewBox="0 0.05 69.898 74.998" enable-background="new 0 0.05 69.898 74.998"
	 xml:space="preserve">
<g>
	<g>
		<path fill="#FFFFFF" d="M33.588,44.02c-0.631-0.617-1.185-0.908-1.78-1.164c-0.601-0.237-1.202-0.424-2.08-0.438h-6.07v-1.63
			h8.998c0,0-0.661-4.754-4.858-4.754h-4.14v-2.821c0,0,0.711-10.929-9.937-10.929v20.134h-0.01l0.017,0.038v3.592
			c0,0.619,0.239,1.184,0.618,1.618c0.456,0.524,1.121,0.862,1.871,0.862h1.461c0.006,0,0.011-0.002,0.018-0.002
			c4.179,0,12.526,0,12.526,0s0.89,0.91,2.161,2.207c0.031,0.035,0.063,0.063,0.093,0.098c2.102,2.145,5.175,5.279,7.021,7.123
			c0.731,0.73,1.543,1.078,2.356,1.188c2.541,0.346,5.086-1.621,5.086-1.621l-2.405-2.408L33.588,44.02z"/>
		<path fill="#FFFFFF" d="M18.493,62.954c-7.74-0.013-14.003-6.276-14.017-14.021c0.01-5.463,3.139-10.177,7.696-12.491v-4.892
			C5.074,34.133,0.002,40.941,0,48.936C0.002,59.152,8.28,67.43,18.493,67.43c7.683,0,14.267-4.683,17.062-11.347l-3.533-3.532
			C30.419,58.532,24.983,62.941,18.493,62.954z"/>
		<circle fill="#FFFFFF" cx="17.835" cy="15.948" r="4.933"/>
	</g>
	<g>
		<g>
			<path fill="#FFFFFF" d="M43.29,9.195v65.853L69.816,65.9V0.05L43.29,9.195z M49.691,41.207c-1.828,0-2.741-0.915-2.741-2.743
				c0-1.83,0.913-2.743,2.741-2.743s2.744,0.914,2.744,2.743C52.438,40.292,51.523,41.207,49.691,41.207z"/>
		</g>
	</g>
	<rect x="35.71" y="0.804" fill="#FFFFFF" width="34.188" height="5.128"/>
	<rect x="35.71" y="60.639" fill="#FFFFFF" width="34.188" height="5.127"/>
</g>
</svg>
