<?xml version="1.0" encoding="utf-8"?>
<!-- Generator: Adobe Illustrator 16.0.0, SVG Export Plug-In . SVG Version: 6.00 Build 0)  -->
<!DOCTYPE svg PUBLIC "-//W3C//DTD SVG 1.1//EN" "http://www.w3.org/Graphics/SVG/1.1/DTD/svg11.dtd">
<svg version="1.1" id="Layer_1" xmlns="http://www.w3.org/2000/svg" xmlns:xlink="http://www.w3.org/1999/xlink" x="0px" y="0px"
	 width="75px" height="75px" viewBox="0 0 75 75" enable-background="new 0 0 75 75" xml:space="preserve">
<path fill="#FFFFFF" d="M57.46,0.287H16.902c-5.337,0-6.232,1.067-6.232,6.404V75h21.347V62.192c0-1.178,0.783-2.136,1.963-2.136
	h6.405c1.177,0,2.306,0.958,2.306,2.136V75h21.347V6.691C64.036,1.354,62.797,0.287,57.46,0.287z M27.747,50.451
	c0,1.179-0.957,2.136-2.134,2.136h-6.404c-1.178,0-2.134-0.957-2.134-2.136v-6.403c0-1.179,0.956-2.135,2.134-2.135h6.404
	c1.178,0,2.134,0.956,2.134,2.135V50.451z M27.747,32.307c0,1.179-0.957,2.135-2.134,2.135h-6.404c-1.178,0-2.134-0.956-2.134-2.135
	v-6.404c0-1.178,0.956-2.135,2.134-2.135h6.404c1.178,0,2.134,0.957,2.134,2.135V32.307z M27.747,14.163
	c0,1.178-0.957,2.135-2.134,2.135h-6.404c-1.178,0-2.134-0.957-2.134-2.135V7.759c0-1.178,0.956-2.135,2.134-2.135h6.404
	c1.178,0,2.134,0.957,2.134,2.135V14.163z M42.689,50.451c0,1.179-0.957,2.136-2.135,2.136h-6.404c-1.179,0-2.135-0.957-2.135-2.136
	v-6.403c0-1.179,0.956-2.135,2.135-2.135h6.404c1.178,0,2.135,0.956,2.135,2.135V50.451z M42.689,32.307
	c0,1.179-0.957,2.135-2.135,2.135h-6.404c-1.179,0-2.135-0.956-2.135-2.135v-6.404c0-1.178,0.956-2.135,2.135-2.135h6.404
	c1.178,0,2.135,0.957,2.135,2.135V32.307z M42.689,14.163c0,1.178-0.957,2.135-2.135,2.135h-6.404c-1.179,0-2.135-0.957-2.135-2.135
	V7.759c0-1.178,0.956-2.135,2.135-2.135h6.404c1.178,0,2.135,0.957,2.135,2.135V14.163z M57.632,50.451
	c0,1.179-0.957,2.136-2.134,2.136h-6.405c-1.178,0-2.134-0.957-2.134-2.136v-6.403c0-1.179,0.956-2.135,2.134-2.135h6.405
	c1.177,0,2.134,0.956,2.134,2.135V50.451z M57.632,32.307c0,1.179-0.957,2.135-2.134,2.135h-6.405c-1.178,0-2.134-0.956-2.134-2.135
	v-6.404c0-1.178,0.956-2.135,2.134-2.135h6.405c1.177,0,2.134,0.957,2.134,2.135V32.307z M57.632,14.163
	c0,1.178-0.957,2.135-2.134,2.135h-6.405c-1.178,0-2.134-0.957-2.134-2.135V7.759c0-1.178,0.956-2.135,2.134-2.135h6.405
	c1.177,0,2.134,0.957,2.134,2.135V14.163z"/>
</svg>
