<?xml version="1.0" encoding="utf-8"?>
<!-- Generator: Adobe Illustrator 16.0.0, SVG Export Plug-In . SVG Version: 6.00 Build 0)  -->
<!DOCTYPE svg PUBLIC "-//W3C//DTD SVG 1.1//EN" "http://www.w3.org/Graphics/SVG/1.1/DTD/svg11.dtd">
<svg version="1.1" id="Layer_1" xmlns="http://www.w3.org/2000/svg" xmlns:xlink="http://www.w3.org/1999/xlink" x="0px" y="0px"
	 width="71.322px" height="74.94px" viewBox="0 0.013 71.322 74.94" enable-background="new 0 0.013 71.322 74.94"
	 xml:space="preserve">
<g>
	<path fill="#FFFFFF" d="M14.397,31.18c1.077,0,1.971-0.528,1.986-1.176c0,0,0,0,0.057-0.576c0.874-8.825,8.28-15.768,17.286-15.768
		c9.59,0,17.37,7.699,17.37,17.295c0,0.019,0.674,7.65-2.918,13.078c-4.033,6.085-6.521,11.732-6.645,13.984
		c-0.008,0.133-0.237,7.475-0.237,7.475c-0.043,1.322-0.718,3.281-1.497,4.354c0,0-1.919,2.186-4.449,2.264
		c-2.529,0.078-5.024-5.993-6.902-4.637c-1.496,1.082,1.92,7.48,7.217,7.48s7.81-4.426,7.81-4.426
		c0.498-1.229,0.95-3.317,1.006-4.641c0,0,0.32-7.709,0.375-7.871c1.558-4.574,4.664-9.881,7.59-14.781
		c3.611-6.056,2.566-12.334,2.566-12.354c0-11.758-9.531-21.137-21.288-21.137c-11.247,0-20.455,8.588-21.234,19.88
		c-0.036,0.513-0.036,0.513-0.036,0.513C12.446,30.711,13.32,31.18,14.397,31.18z"/>
	<g>
		<path fill="#FFFFFF" d="M20.467,31.474c0.741,0,1.355-0.362,1.365-0.808c0,0,0,0,0.039-0.396
			c0.6-6.063,5.689-10.833,11.876-10.833c6.474,0,11.735,4.962,11.925,11.386c0.003,0.118,0.003,0.118,0.003,0.118
			c0.003,0.208,0.612,0.365,1.354,0.35c0.738-0.013,1.342-0.245,1.336-0.513c0,0,0,0-0.004-0.125
			c-0.203-7.9-6.662-13.909-14.613-13.909c-7.726,0-14.052,5.901-14.59,13.659c-0.024,0.353-0.024,0.353-0.024,0.353
			C19.127,31.151,19.727,31.474,20.467,31.474z"/>
	</g>
	<path fill="#FFFFFF" d="M22.155,41.67c0.868,0.48,9.809,3.855,6.457,16.852c-1.132,0.873-1.467,0.293-1.887-0.375
		c4.274-10.355-4.504-14.139-5.743-14.842C19.743,42.604,21.289,41.189,22.155,41.67z"/>
	<g>
		<path fill="#FFFFFF" d="M59.665,16.403L71.008,5.06c0.42-0.417,0.42-1.097,0-1.513l-3.22-3.221c-0.418-0.417-1.097-0.417-1.515,0
			L54.932,11.669L59.665,16.403z"/>
		<path fill="#FFFFFF" d="M11.782,54.816L0.314,66.284c-0.418,0.419-0.418,1.098,0,1.515l3.219,3.221
			c0.418,0.418,1.096,0.418,1.516,0l11.468-11.465L11.782,54.816z"/>
	</g>
</g>
</svg>
