<?xml version="1.0" encoding="utf-8"?>
<!-- Generator: Adobe Illustrator 16.0.0, SVG Export Plug-In . SVG Version: 6.00 Build 0)  -->
<!DOCTYPE svg PUBLIC "-//W3C//DTD SVG 1.1//EN" "http://www.w3.org/Graphics/SVG/1.1/DTD/svg11.dtd">
<svg version="1.1" id="Layer_1" xmlns="http://www.w3.org/2000/svg" xmlns:xlink="http://www.w3.org/1999/xlink" x="0px" y="0px"
	 width="75px" height="75px" viewBox="0 0 75 75" enable-background="new 0 0 75 75" xml:space="preserve">
<g>
	<circle fill="#FFFFFF" cx="37.806" cy="11.263" r="11.129"/>
	<path fill="#FFFFFF" d="M73.287,51.14c0,0-18.627-25.04-20.481-25.967c-1.855-0.927-15-0.926-15-0.926s-12.983-0.001-14.839,0.926
		S2.563,51.14,2.563,51.14s-1.854,4.637,0.928,7.419c2.783,2.782,7.462,1.854,7.462,1.854l9.316-3.71v10.578h17.536h18.151V56.703
		l9.15,3.71c0,0,4.644,0.928,7.426-1.854C75.314,55.776,73.287,51.14,73.287,51.14z M53.141,44.648c0,0-5.594-2.783-8.377,2.782
		c-2.782,5.564,3.682,7.419,3.682,7.419v1.854l-11.271,3.71l-11.269-3.71V54.85c0,0,6.462-1.855,3.68-7.419
		c-2.782-5.564-8.376-2.782-8.376-2.782V31.665l15.965,5.564l15.966-5.564V44.648z"/>
	<path fill="#FFFFFF" d="M72.862,72.94c0,1.023-0.831,1.854-1.855,1.854H4.282c-1.025,0-1.855-0.83-1.855-1.854v-0.049
		c0-1.025,0.831-1.855,1.855-1.855h66.725c1.024,0,1.855,0.83,1.855,1.855V72.94z"/>
</g>
</svg>
