<?xml version="1.0" encoding="utf-8"?>
<!-- Generator: Adobe Illustrator 16.0.0, SVG Export Plug-In . SVG Version: 6.00 Build 0)  -->
<!DOCTYPE svg PUBLIC "-//W3C//DTD SVG 1.1//EN" "http://www.w3.org/Graphics/SVG/1.1/DTD/svg11.dtd">
<svg version="1.1" id="Layer_1" xmlns="http://www.w3.org/2000/svg" xmlns:xlink="http://www.w3.org/1999/xlink" x="0px" y="0px"
	 width="58.71px" height="74.865px" viewBox="0 0 58.71 74.865" enable-background="new 0 0 58.71 74.865" xml:space="preserve">
<g>
	<path fill="#FFFFFF" d="M58.71,19.09c0-1.62-1.316-2.936-2.936-2.936H2.936C1.314,16.155,0,17.471,0,19.09V71.93
		c0,1.621,1.314,2.936,2.936,2.936h52.839c1.619,0,2.936-1.314,2.936-2.936V19.09z M52.84,67.526c0,0.813-0.657,1.468-1.469,1.468
		H7.339c-0.813,0-1.468-0.654-1.468-1.468V23.494c0-0.812,0.655-1.468,1.468-1.468h44.032c0.812,0,1.469,0.656,1.469,1.468V67.526z"
		/>
	<g>
		<path fill="#FFFFFF" d="M38.757,48.623c-0.461-0.447-0.866-0.661-1.299-0.849c-0.437-0.171-0.875-0.309-1.517-0.317h-4.424v-1.19
			h6.561c0,0-0.48-3.465-3.544-3.465h-3.017v-2.057c0,0,0.519-7.965-7.246-7.965v14.677h-0.009l0.015,0.03v2.617
			c0,0.453,0.173,0.862,0.45,1.18c0.334,0.382,0.817,0.629,1.365,0.629h1.065c0.006,0,0.01,0,0.015,0c3.047,0,9.132,0,9.132,0
			s0.649,0.665,1.575,1.609c0.025,0.023,0.046,0.045,0.068,0.068c1.532,1.564,3.774,3.851,5.121,5.195
			c0.53,0.528,1.124,0.784,1.717,0.866c1.852,0.255,3.707-1.187,3.707-1.187l-1.754-1.752L38.757,48.623z"/>
		<path fill="#FFFFFF" d="M27.752,62.43c-5.646-0.012-10.209-4.578-10.22-10.221c0.008-3.983,2.29-7.421,5.611-9.109v-3.565
			c-5.176,1.882-8.874,6.845-8.875,12.675c0.001,7.446,6.036,13.48,13.484,13.48c5.599,0,10.4-3.411,12.438-8.268l-2.577-2.58
			C36.447,59.204,32.484,62.422,27.752,62.43z"/>
		<circle fill="#FFFFFF" cx="27.271" cy="28.158" r="3.596"/>
	</g>
	<path fill="#FFFFFF" d="M34.961,0.447c-0.601-0.596-1.578-0.596-2.18,0c-0.602,0.595-0.602,1.561,0,2.161l8.711,8.537
		c0.603,0.595,1.58,0.595,2.182,0l8.713-8.537c0.604-0.599,0.604-1.565,0-2.161c-0.601-0.596-1.578-0.596-2.18,0l-7.622,7
		L34.961,0.447z"/>
	<path fill="#FFFFFF" d="M8.542,11.146c-0.601,0.595-1.579,0.595-2.18,0c-0.603-0.596-0.603-1.565,0-2.163l8.712-8.536
		c0.602-0.596,1.58-0.596,2.182,0l8.712,8.536c0.604,0.596,0.604,1.562,0,2.163c-0.601,0.595-1.577,0.595-2.18,0l-7.621-7.003
		L8.542,11.146z"/>
</g>
</svg>
