<?xml version="1.0" encoding="utf-8"?>
<!-- Generator: Adobe Illustrator 16.0.0, SVG Export Plug-In . SVG Version: 6.00 Build 0)  -->
<!DOCTYPE svg PUBLIC "-//W3C//DTD SVG 1.1//EN" "http://www.w3.org/Graphics/SVG/1.1/DTD/svg11.dtd">
<svg version="1.1" id="Layer_1" xmlns="http://www.w3.org/2000/svg" xmlns:xlink="http://www.w3.org/1999/xlink" x="0px" y="0px"
	 width="75px" height="75px" viewBox="0 0 75 75" enable-background="new 0 0 75 75" xml:space="preserve">
<g enable-background="new    ">
	<path fill="#FFFFFF" d="M16.442,64.314V11.344h17.163c6.504,0,10.743,0.265,12.719,0.795c3.035,0.795,5.576,2.523,7.624,5.185
		c2.047,2.662,3.071,6.101,3.071,10.316c0,3.252-0.591,5.986-1.771,8.202c-1.181,2.217-2.68,3.957-4.499,5.221
		c-1.818,1.266-3.667,2.103-5.546,2.512c-2.554,0.506-6.251,0.759-11.093,0.759h-6.974v19.981H16.442z M27.138,20.305v15.031h5.854
		c4.215,0,7.034-0.276,8.455-0.831c1.421-0.554,2.535-1.421,3.343-2.602c0.807-1.18,1.21-2.553,1.21-4.119
		c0-1.927-0.566-3.517-1.698-4.77c-1.133-1.252-2.565-2.035-4.3-2.349c-1.276-0.241-3.842-0.361-7.696-0.361H27.138z"/>
</g>
</svg>
