<?xml version="1.0" encoding="utf-8"?>
<!-- Generator: Adobe Illustrator 16.0.0, SVG Export Plug-In . SVG Version: 6.00 Build 0)  -->
<!DOCTYPE svg PUBLIC "-//W3C//DTD SVG 1.1//EN" "http://www.w3.org/Graphics/SVG/1.1/DTD/svg11.dtd">
<svg version="1.1" id="Layer_1" xmlns="http://www.w3.org/2000/svg" xmlns:xlink="http://www.w3.org/1999/xlink" x="0px" y="0px"
	 width="73.894px" height="56.933px" viewBox="0 0 73.894 56.933" enable-background="new 0 0 73.894 56.933" xml:space="preserve">
<g>
	<g>
		<path fill="#FFFFFF" d="M32.068,34.584c-0.604-0.588-1.131-0.866-1.698-1.112c-0.573-0.226-1.147-0.404-1.987-0.417H22.59v-1.558
			h8.592c0,0-0.631-4.54-4.643-4.54H22.59v-2.693c0,0,0.676-10.433-9.487-10.433v19.224h-0.014l0.02,0.035v3.428
			c0,0.595,0.226,1.131,0.589,1.546c0.436,0.501,1.07,0.825,1.788,0.825h1.39c0.009,0,0.014-0.003,0.021-0.003
			c3.99,0,11.958,0,11.958,0s0.851,0.872,2.061,2.108c0.031,0.03,0.06,0.061,0.092,0.09c2.004,2.049,4.942,5.041,6.704,6.804
			c0.696,0.696,1.473,1.028,2.25,1.135c2.426,0.33,4.854-1.551,4.854-1.551l-2.298-2.3L32.068,34.584z"/>
		<path fill="#FFFFFF" d="M17.66,52.663c-7.394-0.014-13.371-5.996-13.384-13.384c0.009-5.218,2.997-9.717,7.349-11.927v-4.672
			C4.844,25.148,0.001,31.645,0,39.279c0.001,9.752,7.906,17.653,17.66,17.653c7.333,0,13.62-4.467,16.289-10.829l-3.375-3.376
			C29.045,48.438,23.854,52.651,17.66,52.663z"/>
		<circle fill="#FFFFFF" cx="17.028" cy="7.782" r="4.71"/>
	</g>
	<g enable-background="new    ">
		<path fill="#FFFFFF" d="M38.427,17.926L34.219,0.301h3.643l2.657,12.106l3.223-12.106h4.231l3.09,12.311l2.705-12.311h3.583
			l-4.28,17.625h-3.775l-3.51-13.177l-3.499,13.177H38.427z"/>
		<path fill="#FFFFFF" d="M70.443,11.445l3.45,1.094c-0.529,1.923-1.41,3.354-2.639,4.286c-1.231,0.935-2.793,1.4-4.684,1.4
			c-2.341,0-4.265-0.799-5.771-2.398c-1.507-1.599-2.26-3.784-2.26-6.558c0-2.934,0.757-5.212,2.271-6.835
			C62.328,0.812,64.319,0,66.788,0c2.155,0,3.907,0.637,5.254,1.912c0.801,0.754,1.402,1.836,1.804,3.246l-3.523,0.841
			c-0.208-0.914-0.643-1.635-1.304-2.164c-0.661-0.529-1.466-0.793-2.411-0.793c-1.307,0-2.366,0.469-3.18,1.407
			c-0.814,0.938-1.221,2.458-1.221,4.557c0,2.23,0.4,3.817,1.203,4.761c0.801,0.947,1.842,1.419,3.125,1.419
			c0.945,0,1.759-0.301,2.441-0.902C69.657,13.682,70.146,12.738,70.443,11.445z"/>
	</g>
</g>
</svg>
