<?xml version="1.0" encoding="utf-8"?>
<!-- Generator: Adobe Illustrator 16.0.0, SVG Export Plug-In . SVG Version: 6.00 Build 0)  -->
<!DOCTYPE svg PUBLIC "-//W3C//DTD SVG 1.1//EN" "http://www.w3.org/Graphics/SVG/1.1/DTD/svg11.dtd">
<svg version="1.1" id="Layer_1" xmlns="http://www.w3.org/2000/svg" xmlns:xlink="http://www.w3.org/1999/xlink" x="0px" y="0px"
	 width="75px" height="75px" viewBox="0 0 75 75" enable-background="new 0 0 75 75" xml:space="preserve">
<path fill="#FFFFFF" d="M67.5,5.5h-60C3.375,5.5,0,8.875,0,13v41.25c0,4.125,3.311,8.162,7.355,8.973h24.001c0,0,0,5.043-12,5.043
	C16.17,69.703,13.288,71.5,18.75,71.5h37.5c5.624,0,2.401-1.903-0.89-3.361c-12.004,0-12.004-4.916-12.004-4.916h24.29
	C71.691,62.412,75,58.375,75,54.25V13C75,8.875,71.625,5.5,67.5,5.5z M67.5,53.875h-60V12.25h60V53.875z"/>
</svg>
